<svg width="22" height="21" viewBox="0 0 22 21" fill="none" xmlns="http://www.w3.org/2000/svg">
<path d="M13.4576 12.5053C13.3146 12.5053 13.1756 12.458 13.0623 12.3707L11.2996 11.0112C11.221 10.9507 11.1573 10.8729 11.1135 10.7839C11.0697 10.6949 11.0469 10.597 11.0469 10.4978V7.81993C11.0469 7.64805 11.1152 7.48322 11.2367 7.36169C11.3582 7.24015 11.5231 7.17188 11.6949 7.17188C11.8668 7.17188 12.0316 7.24015 12.1532 7.36169C12.2747 7.48322 12.343 7.64805 12.343 7.81993V10.1788L13.8537 11.3439C13.9609 11.4265 14.0396 11.5406 14.0786 11.6702C14.1177 11.7998 14.1153 11.9383 14.0716 12.0664C14.0279 12.1946 13.9452 12.3058 13.8351 12.3845C13.725 12.4632 13.593 12.5055 13.4576 12.5053Z" fill="#9CA3AF"/>
<path d="M11.6969 0.46875C6.84369 0.46875 2.73432 4.01432 1.85585 8.64717L1.42525 8.10353C1.37235 8.03687 1.30683 7.98127 1.23244 7.93993C1.15805 7.89859 1.07624 7.8723 0.991695 7.86257C0.82094 7.84292 0.649374 7.89191 0.514739 7.99876C0.380105 8.10561 0.29343 8.26157 0.273782 8.43232C0.254134 8.60307 0.303123 8.77464 0.409971 8.90928L1.81985 10.6893C1.87261 10.756 1.93802 10.8118 2.01235 10.8532C2.08667 10.8947 2.16844 10.9211 2.25297 10.9309C2.33751 10.9408 2.42316 10.9338 2.50501 10.9105C2.58686 10.8872 2.66332 10.848 2.73 10.7951L4.50998 9.38523C4.64471 9.27848 4.73152 9.12258 4.7513 8.95182C4.77108 8.78107 4.72222 8.60945 4.61547 8.47472C4.50872 8.33999 4.35282 8.25318 4.18206 8.2334C4.01131 8.21362 3.83969 8.26248 3.70496 8.36923L3.14043 8.81639C3.93322 4.81718 7.49607 1.7663 11.6976 1.7663C16.5126 1.76486 20.4305 5.68269 20.4305 10.4984C20.4305 15.3142 16.5134 19.232 11.6969 19.232C10.114 19.2341 8.56055 18.8049 7.20325 17.9905C5.84595 17.1762 4.73613 16.0075 3.99298 14.61C3.95375 14.5335 3.89968 14.4655 3.83393 14.4101C3.76817 14.3547 3.69205 14.3129 3.61 14.2872C3.52794 14.2615 3.44159 14.2524 3.35598 14.2604C3.27037 14.2684 3.18721 14.2934 3.11134 14.3339C3.03547 14.3743 2.96842 14.4295 2.91408 14.4961C2.85974 14.5628 2.81921 14.6396 2.79484 14.722C2.77047 14.8045 2.76276 14.891 2.77215 14.9764C2.78154 15.0619 2.80784 15.1447 2.84953 15.2199C3.70292 16.825 4.97744 18.1672 6.53618 19.1026C8.09493 20.038 9.87904 20.531 11.6969 20.5289C17.2277 20.5289 21.7273 16.0292 21.7273 10.4992C21.7273 4.96911 17.2269 0.46875 11.6969 0.46875Z" fill="#9CA3AF"/>
<path d="M11.6988 16.8389C15.1939 16.8389 18.0389 13.9954 18.0389 10.4995C18.0389 7.00367 15.1947 4.16016 11.6988 4.16016C8.20289 4.16016 5.35938 7.00439 5.35938 10.4995C5.35938 13.9947 8.20289 16.8389 11.6988 16.8389ZM11.6988 5.45626C14.4796 5.45626 16.7421 7.71868 16.7421 10.4995C16.7421 13.2804 14.4796 15.5428 11.6988 15.5428C8.91862 15.5428 6.6562 13.2804 6.6562 10.4995C6.6562 7.71868 8.9179 5.45626 11.6988 5.45626Z" fill="#9CA3AF"/>
</svg>
