<svg width="22" height="22" viewBox="0 0 22 22" fill="none" xmlns="http://www.w3.org/2000/svg">
<g id="search">
<path id="Vector" d="M13.77 12.016L13.5569 12.3157L13.817 12.5758L18.8435 17.6023C18.9531 17.7169 19.0136 17.8698 19.0122 18.0284C19.0109 18.1881 18.9468 18.3409 18.8339 18.4538C18.7209 18.5667 18.5682 18.6308 18.4085 18.6322C18.2499 18.6336 18.097 18.573 17.9824 18.4635L12.9569 13.438L12.6968 13.1779L12.3971 13.391C11.5249 14.0112 10.4989 14.3793 9.43138 14.4551C8.36387 14.5308 7.29612 14.3113 6.34511 13.8205C5.39411 13.3296 4.59655 12.5865 4.03984 11.6725C3.48314 10.7586 3.18876 9.70896 3.18896 8.63877V8.63864C3.18885 7.72113 3.40529 6.81655 3.82069 5.99846C4.23609 5.18038 4.83872 4.47189 5.57956 3.93062C6.3204 3.38935 7.17854 3.03059 8.08418 2.8835C8.98982 2.73642 9.91739 2.80517 10.7915 3.08416C11.6655 3.36316 12.4614 3.84451 13.1143 4.48909C13.7673 5.13366 14.2589 5.92325 14.5491 6.79364C14.8394 7.66402 14.9201 8.59063 14.7847 9.49809C14.6493 10.4056 14.3017 11.2683 13.77 12.016ZM9.01875 4.02707C7.79567 4.02707 6.62269 4.51294 5.75784 5.37778C4.89299 6.24263 4.40713 7.41561 4.40713 8.63869C4.40713 9.86177 4.89299 11.0348 5.75784 11.8996C6.62269 12.7644 7.79567 13.2503 9.01875 13.2503C10.2418 13.2503 11.4148 12.7644 12.2797 11.8996C13.1445 11.0348 13.6304 9.86177 13.6304 8.63869C13.6304 7.41561 13.1445 6.24263 12.2797 5.37778C11.4148 4.51293 10.2418 4.02707 9.01875 4.02707Z" fill="#6B7280" stroke="#6B7280" stroke-width="0.870117"/>
</g>
</svg>
