<svg width="51" height="45" viewBox="0 0 51 45" fill="none" xmlns="http://www.w3.org/2000/svg">
<path d="M2.72253 44.4459C1.43232 44.4459 0.386402 43.4036 0.386421 42.1134C0.386494 36.9455 0.386692 24.982 0.387024 24.9355C0.409966 21.6981 1.05867 18.495 2.29804 15.5029C3.5601 12.456 5.40995 9.68756 7.74195 7.35556C10.0739 5.02356 12.8424 3.17372 15.8893 1.91165C18.9362 0.649578 22.2019 -1.44158e-07 25.4998 0C28.7978 1.44158e-07 32.0634 0.649579 35.1103 1.91165C38.1572 3.17372 40.9257 5.02356 43.2577 7.35556C45.5897 9.68756 47.4396 12.456 48.7016 15.5029C49.9424 18.4984 50.5912 21.7052 50.6127 24.9464C50.613 24.9901 50.6132 36.9469 50.6133 42.1133C50.6133 43.4035 49.5674 44.4459 48.2771 44.4459H41.302C40.0118 44.4459 38.9659 43.4035 38.9659 42.1133C38.9657 36.9476 38.9654 24.994 38.9649 24.9516C38.9443 23.2383 38.5969 21.5441 37.9409 19.9602C37.2641 18.3264 36.2722 16.8419 35.0218 15.5915C33.7713 14.3411 32.2869 13.3492 30.6531 12.6724C29.0193 11.9957 27.2682 11.6474 25.4998 11.6474C23.7314 11.6474 21.9804 11.9957 20.3466 12.6724C18.7128 13.3492 17.2283 14.3411 15.9779 15.5915C14.7275 16.8419 13.7355 18.3264 13.0588 19.9602C12.4048 21.5391 12.0575 23.2276 12.0349 24.9354C12.0343 24.982 12.034 36.9455 12.0338 42.1134C12.0338 43.4036 10.9878 44.4459 9.69764 44.4459H2.72253Z" fill="#6B7280"/>
</svg>
