<svg width="221" height="104" viewBox="0 0 221 104" fill="none" xmlns="http://www.w3.org/2000/svg">
<rect width="10" height="1" transform="matrix(1 0 0 -1 60 86)" fill="#51565C"/>
<path fill-rule="evenodd" clip-rule="evenodd" d="M32.0268 9.35571C34.6103 9.35571 36.7046 7.26136 36.7046 4.67786C36.7046 2.09435 34.6103 0 32.0268 0C29.4433 0 27.3489 2.09435 27.3489 4.67786C27.3489 7.26136 29.4433 9.35571 32.0268 9.35571ZM12.7057 5.39765H1.7998V0.359961H18.961L14.643 20.1509H25.9088V25.1886H8.38768L12.7057 5.39765ZM0.0778235 36.7031C0.0263008 36.1103 0 35.5102 0 34.9039V31.6654H41.0212V34.9039C41.0212 35.5102 40.9949 36.1102 40.9434 36.7031C40.0322 47.1882 31.2321 55.4145 20.5106 55.4145C9.78913 55.4145 0.989031 47.1882 0.0778235 36.7031ZM35.88 36.7031C34.9886 44.4009 28.4475 50.3769 20.5106 50.3769C12.5737 50.3769 6.03258 44.4009 5.14117 36.7031H35.88ZM180.529 29.6806V57.4779H181.581H182.858H185.149V45.5326C185.149 44.9315 185.262 44.3806 185.487 43.8798C185.738 43.3789 186.063 42.9407 186.464 42.565C186.89 42.1643 187.378 41.8638 187.929 41.6635C188.505 41.4381 189.131 41.3254 189.807 41.3254C190.633 41.3004 191.335 41.4506 191.911 41.7762C192.487 42.0767 192.912 42.565 193.188 43.2412C193.463 43.8923 193.601 44.7187 193.601 45.7204V57.4779H198.221V45.3823C198.221 43.5792 197.958 42.0767 197.433 40.8746C196.932 39.6726 196.168 38.7711 195.141 38.17C194.139 37.569 192.887 37.2685 191.385 37.2685C190.333 37.2685 189.306 37.4939 188.304 37.9447C187.303 38.3954 186.439 38.9964 185.713 39.7477C185.49 39.9704 185.29 40.2014 185.112 40.4406V29.6806H180.529ZM56.1337 57.4779V31.1831H66.6891C68.5924 31.1831 70.3078 31.4962 71.8354 32.1222C73.388 32.7483 74.7153 33.6498 75.8172 34.8268C76.9441 36.0038 77.7955 37.3937 78.3715 38.9964C78.9725 40.5992 79.273 42.3772 79.273 44.3305C79.273 46.2839 78.9725 48.0744 78.3715 49.7022C77.7955 51.3049 76.9566 52.6948 75.8547 53.8718C74.7529 55.0237 73.4256 55.9127 71.8729 56.5388C70.3203 57.1649 68.5924 57.4779 66.6891 57.4779H56.1337ZM66.5013 52.9702H61.017V35.6908H66.5013C67.7284 35.6908 68.8177 35.8912 69.7694 36.2918C70.721 36.6925 71.5349 37.2685 72.211 38.0198C72.9122 38.7711 73.4381 39.6851 73.7887 40.7619C74.1393 41.8137 74.3146 43.0033 74.3146 44.3305C74.3146 45.6578 74.1393 46.8598 73.7887 47.9367C73.4381 48.9885 72.9247 49.89 72.2486 50.6413C71.5724 51.3925 70.746 51.9685 69.7694 52.3692C68.8177 52.7699 67.7284 52.9702 66.5013 52.9702ZM92.6397 57.8535C90.5611 57.8535 88.7205 57.4153 87.1178 56.5388C85.5401 55.6623 84.3005 54.4728 83.3989 52.9702C82.5224 51.4426 82.0842 49.7022 82.0842 47.7488C82.0842 46.1962 82.3346 44.7813 82.8355 43.5041C83.3363 42.2269 84.025 41.1251 84.9015 40.1985C85.803 39.2469 86.8673 38.5206 88.0944 38.0198C89.3465 37.4939 90.7114 37.2309 92.1889 37.2309C93.4911 37.2309 94.7057 37.4814 95.8326 37.9822C96.9595 38.4831 97.9362 39.1717 98.7626 40.0482C99.589 40.8997 100.215 41.9264 100.641 43.1285C101.092 44.3055 101.304 45.5952 101.279 46.9976L101.242 48.6128H86.6388C86.7546 49.4002 86.9894 50.1139 87.3431 50.754C87.8941 51.7056 88.6579 52.4443 89.6345 52.9702C90.6362 53.4711 91.8007 53.7215 93.128 53.7215C94.0546 53.7215 94.906 53.5713 95.6823 53.2707C96.4587 52.9702 97.2976 52.4318 98.1991 51.6555L100.491 54.8484C99.8144 55.4745 99.038 56.0129 98.1616 56.4637C97.3101 56.8894 96.4086 57.2275 95.4569 57.4779C94.5053 57.7283 93.5662 57.8535 92.6397 57.8535ZM87.1929 44.1051C86.9971 44.5082 86.8463 44.959 86.7406 45.4574H96.7717V45.2696C96.6966 44.4933 96.4461 43.8172 96.0204 43.2412C95.5947 42.6401 95.0437 42.1769 94.3676 41.8513C93.7165 41.5007 92.9902 41.3254 92.1889 41.3254C90.9618 41.3254 89.9225 41.5633 89.0711 42.0391C88.2447 42.5149 87.6186 43.2036 87.1929 44.1051ZM108.151 56.9145C109.203 57.5405 110.443 57.8535 111.87 57.8535C112.972 57.8535 114.011 57.6407 114.988 57.215C115.965 56.7642 116.803 56.1757 117.505 55.4495C117.781 55.164 118.026 54.8641 118.24 54.5497L118.293 57.4779H122.801V37.6817H118.181V49.5519C118.181 50.178 118.068 50.7665 117.843 51.3174C117.617 51.8433 117.304 52.3066 116.904 52.7073C116.503 53.0829 116.027 53.3834 115.476 53.6088C114.95 53.8092 114.362 53.9093 113.711 53.9093C112.834 53.9093 112.083 53.709 111.457 53.3083C110.831 52.9076 110.355 52.3442 110.029 51.6179C109.704 50.8667 109.541 49.9651 109.541 48.9133V37.6817H104.921V49.89C104.921 51.5428 105.196 52.9702 105.747 54.1723C106.298 55.3493 107.099 56.2633 108.151 56.9145ZM129.982 57.4779V41.964H126.075V37.6817H129.982V32.6481H134.602V37.6817H138.922V41.964H134.602V57.4779H129.982ZM144.677 56.9896C146.08 57.5656 147.657 57.8535 149.41 57.8535C150.838 57.8535 152.115 57.5906 153.242 57.0647C154.394 56.5388 155.295 55.8126 155.946 54.886C156.623 53.9594 156.961 52.9076 156.961 51.7306C156.961 51.0044 156.86 50.3408 156.66 49.7397C156.46 49.1387 156.122 48.6128 155.646 48.162C155.17 47.6362 154.519 47.1729 153.693 46.7722C152.866 46.3715 151.839 46.0084 150.612 45.6828C149.736 45.4825 149.022 45.2696 148.471 45.0442C147.92 44.8189 147.507 44.6185 147.232 44.4432C146.981 44.2679 146.781 44.0551 146.631 43.8046C146.505 43.5292 146.43 43.2412 146.405 42.9407C146.405 42.5901 146.468 42.2896 146.593 42.0391C146.743 41.7637 146.944 41.5383 147.194 41.363C147.444 41.1877 147.757 41.0625 148.133 40.9873C148.509 40.8872 148.934 40.8371 149.41 40.8371C149.911 40.8371 150.45 40.9498 151.025 41.1752C151.601 41.3755 152.165 41.651 152.716 42.0016C153.292 42.3522 153.818 42.7528 154.294 43.2036L156.848 40.3863C156.272 39.7352 155.571 39.1843 154.744 38.7335C153.943 38.2577 153.066 37.8946 152.115 37.6441C151.188 37.3937 150.224 37.2685 149.222 37.2685C148.246 37.2685 147.307 37.4062 146.405 37.6817C145.504 37.9572 144.715 38.3579 144.039 38.8838C143.362 39.4096 142.824 40.0357 142.423 40.7619C142.048 41.4631 141.86 42.252 141.86 43.1285C141.86 43.8297 141.96 44.4808 142.16 45.0818C142.386 45.6828 142.711 46.2212 143.137 46.6971C143.638 47.273 144.339 47.7989 145.241 48.2747C146.142 48.7255 147.269 49.1262 148.621 49.4768C149.473 49.6771 150.162 49.8775 150.687 50.0778C151.238 50.2781 151.639 50.466 151.889 50.6413C152.34 50.9919 152.566 51.4677 152.566 52.0687C152.566 52.3943 152.49 52.6948 152.34 52.9702C152.215 53.2207 152.027 53.446 151.777 53.6464C151.526 53.8467 151.226 53.997 150.875 54.0972C150.55 54.1973 150.174 54.2474 149.748 54.2474C148.722 54.2474 147.745 54.0596 146.818 53.6839C145.892 53.3083 145.053 52.6948 144.302 51.8433L141.296 54.4352C142.173 55.5371 143.3 56.3886 144.677 56.9896ZM169.145 57.8535C167.291 57.8535 165.626 57.4028 164.149 56.5012C162.671 55.5997 161.507 54.3726 160.655 52.82C159.804 51.2673 159.378 49.5144 159.378 47.561C159.378 45.6077 159.804 43.8547 160.655 42.3021C161.507 40.7494 162.671 39.5223 164.149 38.6208C165.626 37.7193 167.291 37.2685 169.145 37.2685C170.923 37.2685 172.538 37.6066 173.99 38.2827C175.443 38.9589 176.57 39.898 177.371 41.1L174.817 44.1803C174.441 43.6544 173.965 43.1786 173.389 42.7528C172.813 42.3271 172.2 41.989 171.549 41.7386C170.898 41.4882 170.246 41.363 169.595 41.363C168.493 41.363 167.504 41.6384 166.628 42.1894C165.776 42.7153 165.1 43.454 164.599 44.4057C164.098 45.3322 163.848 46.384 163.848 47.561C163.848 48.738 164.098 49.7898 164.599 50.7164C165.125 51.643 165.826 52.3817 166.703 52.9327C167.579 53.4836 168.556 53.7591 169.633 53.7591C170.284 53.7591 170.91 53.6589 171.511 53.4586C172.137 53.2332 172.726 52.9202 173.277 52.5195C173.827 52.1188 174.341 51.6179 174.817 51.0169L177.371 54.1347C176.52 55.2366 175.343 56.1381 173.84 56.8393C172.363 57.5155 170.797 57.8535 169.145 57.8535ZM212.322 57.8535C210.243 57.8535 208.403 57.4153 206.8 56.5388C205.222 55.6623 203.983 54.4728 203.081 52.9702C202.205 51.4426 201.766 49.7022 201.766 47.7488C201.766 46.1962 202.017 44.7813 202.518 43.5041C203.019 42.2269 203.707 41.1251 204.584 40.1985C205.485 39.2469 206.55 38.5206 207.777 38.0198C209.029 37.4939 210.394 37.2309 211.871 37.2309C213.173 37.2309 214.388 37.4814 215.515 37.9822C216.642 38.4831 217.618 39.1717 218.445 40.0482C219.271 40.8997 219.897 41.9264 220.323 43.1285C220.774 44.3055 220.987 45.5952 220.962 46.9976L220.924 48.6128H206.321C206.437 49.4002 206.672 50.1139 207.025 50.754C207.576 51.7056 208.34 52.4443 209.317 52.9702C210.319 53.4711 211.483 53.7215 212.81 53.7215C213.737 53.7215 214.588 53.5713 215.365 53.2707C216.141 52.9702 216.98 52.4318 217.881 51.6555L220.173 54.8484C219.497 55.4745 218.72 56.0129 217.844 56.4637C216.992 56.8894 216.091 57.2275 215.139 57.4779C214.188 57.7283 213.249 57.8535 212.322 57.8535ZM206.875 44.1051C206.679 44.5082 206.529 44.959 206.423 45.4574H216.454V45.2696C216.379 44.4933 216.128 43.8172 215.703 43.2412C215.277 42.6401 214.726 42.1769 214.05 41.8513C213.399 41.5007 212.673 41.3254 211.871 41.3254C210.644 41.3254 209.605 41.5633 208.753 42.0391C207.927 42.5149 207.301 43.2036 206.875 44.1051ZM91.0441 86V75.0001H95.6645V86H91.0441ZM85.4647 86V66.6471H80.8067V86H85.4647ZM74.2452 86L67.6503 68.2157H63.0675L56.4238 86H61.2122L63.3304 80.1766C63.5057 79.6538 63.6935 79.0655 63.8939 78.4119C64.1193 77.7583 64.3446 77.0786 64.57 76.3727C64.7954 75.6668 65.0083 74.987 65.2086 74.3334L65.2572 74.1747C65.4548 74.8443 65.6765 75.577 65.9223 76.3727C66.1727 77.157 66.3981 77.889 66.5985 78.5688C66.8239 79.2485 66.9992 79.7453 67.1244 80.059L69.2691 86H74.2452ZM197.869 85.956L197.855 85.9414C197.379 85.3924 196.728 84.9087 195.901 84.4904C195.075 84.0721 194.048 83.693 192.821 83.3531C191.944 83.144 191.231 82.9218 190.68 82.6865C190.129 82.4512 189.716 82.242 189.44 82.059C189.19 81.876 188.989 81.6538 188.839 81.3923C188.714 81.1048 188.639 80.8041 188.614 80.4904C188.614 80.1244 188.676 79.8106 188.802 79.5492C188.952 79.2616 189.152 79.0263 189.403 78.8433C189.653 78.6603 189.966 78.5296 190.342 78.4511C190.717 78.3465 191.143 78.2943 191.619 78.2943C192.12 78.2943 192.658 78.4119 193.234 78.6472C193.81 78.8564 194.374 79.1439 194.925 79.51C195.501 79.876 196.026 80.2943 196.502 80.7649L199.057 77.8237C198.481 77.1439 197.779 76.5688 196.953 76.0982C196.152 75.6014 195.275 75.2223 194.324 74.9609C193.397 74.6995 192.433 74.5687 191.431 74.5687C190.454 74.5687 189.515 74.7125 188.614 75.0001C187.712 75.2877 186.923 75.706 186.247 76.255C185.571 76.8041 185.033 77.4577 184.632 78.2158C184.256 78.9479 184.069 79.7714 184.069 80.6864C184.069 81.4185 184.169 82.0982 184.369 82.7257C184.594 83.3531 184.92 83.9152 185.346 84.412C185.827 84.9895 186.493 85.5189 187.343 86H197.913C197.898 85.9852 197.884 85.9706 197.869 85.956ZM174.231 86V84.6473C174.231 83.9152 174.343 83.2616 174.569 82.6865C174.819 82.0852 175.157 81.5623 175.583 81.1178C176.009 80.6734 176.497 80.3335 177.048 80.0982C177.624 79.8368 178.225 79.706 178.851 79.706C179.252 79.706 179.652 79.7583 180.053 79.8629C180.454 79.9675 180.792 80.0982 181.067 80.2551L182.307 74.9609C182.056 74.8563 181.731 74.7648 181.33 74.6864C180.955 74.6079 180.554 74.5687 180.128 74.5687C179.152 74.5687 178.212 74.8171 177.311 75.3138C176.434 75.7844 175.658 76.438 174.982 77.2746C174.663 77.6696 174.388 78.0879 174.158 78.5295L174.118 75.0001H169.573V86H174.231ZM165.828 86L165.856 84.7257C165.881 83.2616 165.668 81.9152 165.218 80.6864C164.792 79.4315 164.166 78.3596 163.339 77.4707C162.513 76.5557 161.536 75.8367 160.409 75.3138C159.283 74.791 158.068 74.5295 156.766 74.5295C155.288 74.5295 153.923 74.804 152.671 75.3531C151.444 75.8759 150.38 76.6341 149.478 77.6276C148.602 78.5949 147.913 79.7453 147.412 81.0786C146.911 82.412 146.661 83.8891 146.661 85.51C146.661 85.6748 146.664 85.8381 146.67 86H165.828ZM143.116 86V83.0394C143.116 81.157 142.853 79.5884 142.327 78.3335C141.826 77.0786 141.062 76.1374 140.036 75.5099C139.034 74.8825 137.782 74.5687 136.279 74.5687C135.228 74.5687 134.201 74.804 133.199 75.2746C132.197 75.7452 131.333 76.3727 130.607 77.157C130.375 77.3998 130.166 77.6519 129.983 77.9135L129.931 75.0001H125.423V86H130.044V83.1963C130.044 82.5688 130.156 81.9937 130.382 81.4708C130.632 80.9479 130.958 80.4904 131.358 80.0982C131.784 79.6799 132.272 79.3662 132.823 79.157C133.399 78.9217 134.025 78.8041 134.702 78.8041C135.528 78.7779 136.229 78.9348 136.805 79.2747C137.381 79.5884 137.807 80.0982 138.082 80.8041C138.358 81.4838 138.496 82.3466 138.496 83.3924V86H143.116ZM120.455 86V75.0001H115.91L115.87 77.5755C115.642 77.2952 115.38 77.025 115.084 76.7648C114.608 76.3465 114.07 75.9674 113.469 75.6276C112.893 75.2877 112.254 75.0263 111.553 74.8432C110.852 74.6602 110.125 74.5687 109.374 74.5687C107.571 74.5687 105.943 75.0393 104.491 75.9805C103.063 76.8956 101.936 78.1635 101.11 79.7845C100.284 81.3793 99.8705 83.2094 99.8705 85.2747C99.8705 85.5198 99.8763 85.7615 99.8879 86H104.554C104.537 85.7755 104.528 85.5468 104.528 85.3139C104.528 84.059 104.766 82.9479 105.242 81.9806C105.743 80.9871 106.419 80.2159 107.271 79.6668C108.122 79.0917 109.111 78.8041 110.238 78.8041C111.365 78.8041 112.354 79.0786 113.206 79.6276C114.057 80.1766 114.721 80.9479 115.197 81.9414C115.697 82.9087 115.948 84.0329 115.948 85.3139C115.948 85.5476 115.94 85.7763 115.923 86H120.455ZM93.2979 70.6079C92.3714 70.6079 91.6451 70.3726 91.1192 69.902C90.6184 69.4053 90.368 68.7125 90.368 67.8236C90.368 66.987 90.6309 66.3072 91.1568 65.7843C91.6827 65.2614 92.3964 65 93.2979 65C94.2496 65 94.9758 65.2484 95.4766 65.7451C96.0025 66.2157 96.2655 66.9085 96.2655 67.8236C96.2655 68.634 96.0025 69.3007 95.4766 69.8236C94.9508 70.3465 94.2245 70.6079 93.2979 70.6079ZM151.317 83.1178C151.423 82.5975 151.574 82.1269 151.77 81.7061C152.195 80.7649 152.822 80.0459 153.648 79.5492C154.499 79.0524 155.539 78.8041 156.766 78.8041C157.567 78.8041 158.293 78.9871 158.944 79.3531C159.621 79.693 160.172 80.1766 160.597 80.8041C161.023 81.4054 161.273 82.1113 161.349 82.9218V83.1178H151.317ZM55.6058 87.692L53 94.3735H57.8833L59.871 89.1392H70.9737L72.9465 94.3735H78.0176L75.4309 87.692H55.6058ZM80.9942 87.692V94.3735H85.6522V87.692H80.9942ZM91.2316 87.692V94.3735H95.852V87.692H91.2316ZM100.491 87.692C100.691 88.3917 100.96 89.0537 101.298 89.678C102.149 91.1806 103.288 92.3701 104.716 93.2466C106.168 94.1231 107.834 94.5613 109.712 94.5613C110.789 94.5613 111.841 94.3484 112.867 93.9227C113.894 93.472 114.745 92.896 115.422 92.1948C115.636 91.9726 115.824 91.7467 115.985 91.517V93.3593C115.985 94.6114 115.76 95.6507 115.309 96.4771C114.858 97.3285 114.182 97.9546 113.28 98.3553C112.404 98.781 111.302 98.9939 109.975 98.9939C109.249 98.9939 108.51 98.9187 107.759 98.7685C107.032 98.6182 106.344 98.4054 105.693 98.1299C105.041 97.8544 104.453 97.5289 103.927 97.1532L102.274 100.572C103.176 101.298 104.353 101.886 105.805 102.337C107.283 102.788 108.76 103.013 110.238 103.013C111.866 103.013 113.318 102.788 114.595 102.337C115.872 101.911 116.962 101.26 117.863 100.384C118.765 99.5323 119.453 98.493 119.929 97.2659C120.405 96.0388 120.643 94.6239 120.643 93.0212V87.692H115.4C114.925 88.5984 114.256 89.3104 113.393 89.8283C112.542 90.3541 111.553 90.6171 110.426 90.6171C109.299 90.6171 108.309 90.3541 107.458 89.8283C106.62 89.3104 105.951 88.5984 105.453 87.692H100.491ZM125.611 87.692V94.3735H126.663H127.94H130.231V87.692H125.611ZM138.683 87.692V94.3735H143.303V87.692H138.683ZM147.251 87.692C147.468 88.4591 147.772 89.1837 148.163 89.8658C149.065 91.3684 150.304 92.5579 151.882 93.4344C153.485 94.3109 155.325 94.7491 157.404 94.7491C158.331 94.7491 159.27 94.6239 160.221 94.3735C161.173 94.1231 162.074 93.785 162.926 93.3593C163.802 92.9085 164.579 92.3701 165.255 91.744L162.963 88.5511C162.062 89.3274 161.223 89.8658 160.447 90.1663C159.67 90.4668 158.819 90.6171 157.892 90.6171C156.565 90.6171 155.401 90.3667 154.399 89.8658C153.437 89.3478 152.681 88.6232 152.132 87.692H147.251ZM169.76 87.692V94.3735H174.418V87.692H169.76ZM193.499 87.692C193.808 88.0179 193.962 88.4294 193.962 88.9267C193.962 89.2523 193.887 89.5528 193.736 89.8283C193.611 90.0787 193.423 90.3041 193.173 90.5044C192.923 90.7047 192.622 90.855 192.271 90.9552C191.946 91.0553 191.57 91.1054 191.145 91.1054C190.118 91.1054 189.141 90.9176 188.215 90.542C187.288 90.1663 186.449 89.5528 185.698 88.7013L182.693 91.2933C183.569 92.3951 184.696 93.2466 186.073 93.8476C187.476 94.4236 189.053 94.7116 190.806 94.7116C192.234 94.7116 193.511 94.4486 194.638 93.9227C195.79 93.3968 196.691 92.6706 197.343 91.744C198.019 90.8174 198.357 89.7656 198.357 88.5886C198.357 88.2784 198.339 87.9795 198.302 87.692H193.499Z" fill="#51565C"/>
</svg>
