<svg width="51" height="45" viewBox="0 0 51 45" fill="none" xmlns="http://www.w3.org/2000/svg">
<path d="M48.2775 0.268909C49.5677 0.268909 50.6136 1.31123 50.6136 2.60144C50.6135 7.76937 50.6133 19.7328 50.613 19.7794C50.59 23.0168 49.9413 26.2198 48.702 29.2119C47.4399 32.2588 45.5901 35.0273 43.2581 37.3593C40.9261 39.6913 38.1576 41.5411 35.1107 42.8032C32.0638 44.0653 28.7981 44.7148 25.5002 44.7148C22.2022 44.7148 18.9366 44.0653 15.8897 42.8032C12.8428 41.5411 10.0743 39.6913 7.74228 37.3593C5.41028 35.0273 3.56043 32.2588 2.29837 29.2119C1.05761 26.2165 0.408838 23.0096 0.387275 19.7685C0.386984 19.7248 0.386807 7.76795 0.386744 2.60154C0.386729 1.31133 1.43264 0.268909 2.72285 0.268909H9.69796C10.9882 0.268909 12.0341 1.31138 12.0341 2.60159C12.0343 7.76726 12.0346 19.7209 12.0351 19.7632C12.0557 21.4765 12.4031 23.1707 13.0591 24.7546C13.7359 26.3884 14.7278 27.8729 15.9782 29.1233C17.2287 30.3738 18.7131 31.3657 20.3469 32.0424C21.9807 32.7192 23.7318 33.0675 25.5002 33.0675C27.2686 33.0675 29.0196 32.7192 30.6534 32.0424C32.2872 31.3657 33.7717 30.3738 35.0221 29.1233C36.2725 27.8729 37.2645 26.3884 37.9412 24.7546C38.5952 23.1757 38.9425 21.4872 38.9651 19.7795C38.9657 19.7329 38.966 7.76938 38.9662 2.60144C38.9662 1.31123 40.0122 0.268909 41.3024 0.268909H48.2775Z" fill="#6B7280"/>
</svg>
