<svg width="28" height="29" viewBox="0 0 28 29" fill="none" xmlns="http://www.w3.org/2000/svg">
<path d="M21.3753 17.2293C20.7597 16.648 20.4063 15.8581 20.3909 15.0292V13.2292C20.3898 11.7523 19.8567 10.3213 18.882 9.17864C17.9073 8.03603 16.551 7.2522 15.043 6.96006V5.50002C15.043 5.2348 14.9332 4.98044 14.7379 4.7929C14.5425 4.60536 14.2776 4.5 14.0013 4.5C13.725 4.5 13.4601 4.60536 13.2647 4.7929C13.0694 4.98044 12.9596 5.2348 12.9596 5.50002V6.96006C11.4511 7.2523 10.0944 8.03658 9.11962 9.17981C8.14485 10.323 7.61209 11.7548 7.61172 13.2322V14.8182C7.61179 14.8889 7.61982 14.9593 7.63568 15.0282H7.61172C7.59635 15.8571 7.2429 16.647 6.62734 17.2283C6.0682 17.7545 5.72726 18.4578 5.66797 19.2073C5.66797 19.7504 5.66797 21.4004 7.27005 21.4004H9.57005C9.87197 22.3007 10.4636 23.0859 11.2599 23.6429C12.0562 24.1999 13.0161 24.5 14.0013 24.5C14.9865 24.5 15.9464 24.1999 16.7427 23.6429C17.539 23.0859 18.1306 22.3007 18.4326 21.4004H20.7326C22.3346 21.4004 22.3346 19.7504 22.3346 19.2073C22.2751 18.4582 21.9342 17.7552 21.3753 17.2293ZM14.0013 22.5004C13.5775 22.4999 13.1604 22.3993 12.7868 22.2075C12.4131 22.0156 12.0943 21.7385 11.8586 21.4004H16.144C15.9083 21.7385 15.5895 22.0156 15.2158 22.2075C14.8422 22.3993 14.4251 22.4999 14.0013 22.5004ZM20.2513 19.4003H7.7513C7.7513 19.3333 7.7513 19.2643 7.7513 19.2073C7.86203 18.9403 8.02866 18.698 8.24089 18.4953C9.16348 17.5582 9.68421 16.3216 9.69922 15.0322V13.2322C9.69723 12.1137 10.1423 11.0371 10.9428 10.2244C11.7432 9.4117 12.838 8.9248 14.0013 8.8641C15.1654 8.92381 16.2612 9.41028 17.0625 10.2231C17.8638 11.0359 18.3095 12.1131 18.3076 13.2322V14.8182C18.3078 14.8888 18.3155 14.9592 18.3305 15.0282H18.3076C18.3226 16.3176 18.8433 17.5542 19.7659 18.4913C19.9781 18.694 20.1447 18.9363 20.2555 19.2033C20.2513 19.2643 20.2513 19.3333 20.2513 19.4003Z" fill="#6B7280"/>
</svg>
